<svg width="169" height="40" viewBox="0 0 169 40" fill="none" xmlns="http://www.w3.org/2000/svg">
<path d="M27.8544 9.73806L10.9365 0L1.79665e-05 6.29102L3.10829 8.0794L10.927 3.58114L26.8058 12.7151C25.5787 13.42 24.4624 14.0588 23.3516 14.6945C21.9682 15.4861 20.5932 16.273 19.0228 17.1769L18.4984 17.4787L21.611 19.2697L27.8544 15.6938V9.73806Z" fill="url(#paint0_linear_1_845)"/>
<path d="M27.8544 24.3075L10.7008 14.4338L1.0301 19.9986L10.7025 25.5656L15.9335 22.5244L12.8204 20.7328L10.6951 21.9829L7.25323 20.0014L10.7007 18.0177C16.0669 21.1097 21.4353 24.1988 26.806 27.285L10.927 36.4187L3.10823 31.9206L-1.52588e-05 33.7091L10.9365 40L27.8544 30.2619V27.8874L27.8545 27.8874L27.8544 24.3075Z" fill="url(#paint1_linear_1_845)"/>
<path d="M49.3351 8.80005C55.0088 8.80005 57.8457 10.7734 57.8457 14.72C57.8457 15.8934 57.5364 16.8107 56.9179 17.472C56.3206 18.1334 55.2648 18.6134 53.7504 18.912V19.072C55.8194 19.3707 57.2805 19.9574 58.1337 20.832C59.0082 21.7067 59.4454 22.8374 59.4454 24.224C59.4454 25.4827 59.0722 26.6454 58.3256 27.712C57.6004 28.7574 56.4806 29.6 54.9662 30.24C53.4518 30.88 51.5747 31.2 49.3351 31.2H39.6727V8.80005H49.3351ZM49.3351 17.248C50.8495 17.248 51.9587 17.0774 52.6626 16.736C53.3664 16.3734 53.7184 15.744 53.7184 14.848C53.7184 14.016 53.3664 13.44 52.6626 13.12C51.9587 12.8 50.8495 12.64 49.3351 12.64H43.768V17.248H49.3351ZM49.3351 27.296C53.3238 27.296 55.3181 26.272 55.3181 24.224C55.3181 23.1574 54.8382 22.3787 53.8784 21.888C52.9185 21.376 51.4041 21.12 49.3351 21.12H43.768V27.296H49.3351Z" fill="#0C1431"/>
<path d="M84.4041 31.2L82.0045 25.92H71.1583L68.9826 31.2H64.8873L74.1658 8.80005H78.2611L88.4995 31.2H84.4041ZM72.758 22.08H80.2448L76.3095 13.504L72.758 22.08Z" fill="#0C1431"/>
<path d="M104.576 8.80005C110.25 8.80005 113.087 10.7734 113.087 14.72C113.087 15.8934 112.777 16.8107 112.159 17.472C111.562 18.1334 110.506 18.6134 108.991 18.912V19.072C111.06 19.3707 112.521 19.9574 113.375 20.832C114.249 21.7067 114.686 22.8374 114.686 24.224C114.686 25.4827 114.313 26.6454 113.567 27.712C112.841 28.7574 111.722 29.6 110.207 30.24C108.693 30.88 106.816 31.2 104.576 31.2H94.9137V8.80005H104.576ZM104.576 17.248C106.091 17.248 107.2 17.0774 107.904 16.736C108.607 16.3734 108.959 15.744 108.959 14.848C108.959 14.016 108.607 13.44 107.904 13.12C107.2 12.8 106.091 12.64 104.576 12.64H99.009V17.248H104.576ZM104.576 27.296C108.565 27.296 110.559 26.272 110.559 24.224C110.559 23.1574 110.079 22.3787 109.119 21.888C108.16 21.376 106.645 21.12 104.576 21.12H99.009V27.296H104.576Z" fill="#0C1431"/>
<path d="M143.103 12.64H126.786V18.08H139.68V21.92H126.786V27.36H143.103V31.2H122.69V8.80005H143.103V12.64Z" fill="#0C1431"/>
<path d="M154.907 27.36H168.633V31.2H150.78V27.36H150.812V8.80005H154.907V27.36Z" fill="#0C1431"/>
<defs>
<linearGradient id="paint0_linear_1_845" x1="-1.5165e-05" y1="28.0172" x2="28.9481" y2="27.5415" gradientUnits="userSpaceOnUse">
<stop stop-color="#48C6EF"/>
<stop offset="0.520833" stop-color="#539DDA"/>
<stop offset="1" stop-color="#6F86D6"/>
</linearGradient>
<linearGradient id="paint1_linear_1_845" x1="-1.5165e-05" y1="28.0172" x2="28.9481" y2="27.5415" gradientUnits="userSpaceOnUse">
<stop stop-color="#48C6EF"/>
<stop offset="0.520833" stop-color="#539DDA"/>
<stop offset="1" stop-color="#6F86D6"/>
</linearGradient>
</defs>
</svg>
